<svg width="1200" height="800" viewBox="0 0 1200 800" xmlns="http://www.w3.org/2000/svg" role="img" aria-label="Admin Arrivals screenshot placeholder">
  <defs>
    <linearGradient id="aa-bg" x1="0" y1="0" x2="1" y2="1">
      <stop offset="0%" stop-color="#f5f9ff"/>
      <stop offset="100%" stop-color="#e9f2ff"/>
    </linearGradient>
  </defs>
  <rect width="1200" height="800" fill="url(#aa-bg)"/>
  <rect x="0" y="0" width="1200" height="72" fill="#3b82f6"/>
  <rect x="24" y="100" width="1152" height="64" rx="12" fill="#ffffff" stroke="#e5e7eb"/>
  <rect x="24" y="180" width="1152" height="360" rx="12" fill="#ffffff" stroke="#e5e7eb"/>
  <rect x="48" y="212" width="520" height="304" rx="8" fill="#f3f4f6"/>
  <rect x="632" y="212" width="520" height="304" rx="8" fill="#f3f4f6"/>
  <rect x="24" y="560" width="1152" height="200" rx="12" fill="#ffffff" stroke="#e5e7eb"/>
  <rect x="48" y="592" width="260" height="96" rx="8" fill="#f3f4f6"/>
  <rect x="328" y="592" width="260" height="96" rx="8" fill="#f3f4f6"/>
  <rect x="608" y="592" width="260" height="96" rx="8" fill="#f3f4f6"/>
  <rect x="888" y="592" width="260" height="96" rx="8" fill="#f3f4f6"/>
  <text x="600" y="46" text-anchor="middle" font-family="Inter, system-ui, -apple-system, Segoe UI, Roboto, Arial" font-size="22" font-weight="700" fill="#ffffff">Admin Arrivals</text>
  <text x="600" y="792" text-anchor="middle" font-family="Inter, system-ui, -apple-system, Segoe UI, Roboto, Arial" font-size="12" fill="#64748b">Placeholder representation – not an actual screenshot</text>
</svg>

