<svg width="1200" height="800" viewBox="0 0 1200 800" xmlns="http://www.w3.org/2000/svg" role="img" aria-label="Guest Dashboard screenshot placeholder">
  <defs>
    <linearGradient id="gd-bg" x1="0" y1="0" x2="1" y2="1">
      <stop offset="0%" stop-color="#f5f7fb"/>
      <stop offset="100%" stop-color="#e9eef7"/>
    </linearGradient>
  </defs>
  <rect width="1200" height="800" fill="url(#gd-bg)"/>
  <rect x="0" y="0" width="1200" height="72" fill="#0ea5e9"/>
  <rect x="24" y="92" width="1152" height="120" rx="12" fill="#ffffff" stroke="#e5e7eb"/>
  <g fill="#0ea5e9" opacity="0.1">
    <rect x="48" y="116" width="72" height="72" rx="12"/>
  </g>
  <rect x="24" y="232" width="1152" height="248" rx="12" fill="#ffffff" stroke="#e5e7eb"/>
  <rect x="48" y="264" width="520" height="184" rx="8" fill="#f3f4f6"/>
  <rect x="592" y="264" width="520" height="184" rx="8" fill="#f3f4f6"/>
  <rect x="24" y="496" width="1152" height="280" rx="12" fill="#ffffff" stroke="#e5e7eb"/>
  <rect x="48" y="528" width="1104" height="56" rx="8" fill="#f3f4f6"/>
  <rect x="48" y="592" width="1104" height="56" rx="8" fill="#f3f4f6"/>
  <rect x="48" y="656" width="1104" height="56" rx="8" fill="#f3f4f6"/>
  <text x="600" y="46" text-anchor="middle" font-family="Inter, system-ui, -apple-system, Segoe UI, Roboto, Arial" font-size="22" font-weight="700" fill="#ffffff">Guest Dashboard</text>
  <text x="600" y="792" text-anchor="middle" font-family="Inter, system-ui, -apple-system, Segoe UI, Roboto, Arial" font-size="12" fill="#64748b">Placeholder representation – not an actual screenshot</text>
</svg>

